<svg width="30" height="30" fill="none" xmlns="http://www.w3.org/2000/svg"><path d="M15 30c8.284 0 15-6.716 15-15 0-8.284-6.716-15-15-15C6.716 0 0 6.716 0 15c0 8.284 6.716 15 15 15z" fill="url(#paint0_linear)"/><path d="M4.355 14.695s1.016 1.473 3.2 2.793c0 0-1.575-13.203 8.582-15.488-2.59 9.547 3.3 12.238 5.484 7.21 3.606 4.774.863 8.99.863 8.99 1.473.202 2.692-1.423 2.692-1.423l.05.61a10.613 10.613 0 11-20.87-2.692z" fill="#FF6536"/><path d="M25.176 16.777s-1.219 1.625-2.692 1.422c0 0 2.743-4.215-.863-8.988-2.183 5.027-8.074 2.336-5.484-7.211a6.684 6.684 0 00-1.524.457V28a10.614 10.614 0 0010.563-11.223z" fill="#FF421D"/><path d="M9.941 23.328a4.672 4.672 0 107.77-3.453c-1.777 2.438-4.367-1.27-2.336-3.96 0 0-5.434.66-5.434 7.413z" fill="#FBBF00"/><path d="M19.285 23.328c0-1.371-.61-2.59-1.574-3.453-1.777 2.438-4.367-1.27-2.336-3.96l-.762.202V28a4.66 4.66 0 004.672-4.672z" fill="#FFA900"/><defs><linearGradient id="paint0_linear" x1="4.393" y1="4.393" x2="25.607" y2="25.607" gradientUnits="userSpaceOnUse"><stop stop-color="#5B5A5F"/><stop offset="1"/></linearGradient></defs></svg>