<svg width="25" height="25" fill="none" xmlns="http://www.w3.org/2000/svg"><g clip-path="url(#clip0)" fill="#707070"><path d="M24.185 13.315H8.424a.816.816 0 010-1.63h15.76a.815.815 0 010 1.63z"/><path d="M12.772 17.663a.809.809 0 01-.577-.239l-4.347-4.348a.816.816 0 010-1.153l4.347-4.348a.816.816 0 011.154 1.153L9.577 12.5l3.772 3.772a.816.816 0 01-.577 1.391z"/><path d="M11.957 24.457C5.364 24.457 0 19.092 0 12.5 0 5.908 5.364.543 11.957.543c4.946 0 9.314 2.976 11.128 7.583a.816.816 0 01-1.518.597 10.273 10.273 0 00-9.61-6.55C6.263 2.174 1.63 6.808 1.63 12.5s4.633 10.326 10.327 10.326c4.271 0 8.044-2.57 9.61-6.548a.816.816 0 011.518.597c-1.814 4.605-6.182 7.582-11.128 7.582z"/></g><defs><clipPath id="clip0"><path fill="#fff" d="M0 0h25v25H0z"/></clipPath></defs></svg>