<svg xmlns="http://www.w3.org/2000/svg" viewBox="0 0 512 512">
  <path d="M54 250s20 29 63 55c0 0-31-260 169-305-51 188 65 241 108 142 71 94 17 177 17 177 29 4 53-28 53-28l1 12a209 209 0 11-411-53z" fill="#909090"/>
  <path d="M464 291s-24 32-53 28c0 0 54-83-17-177-43 99-159 46-108-142-11 2-21 5-30 9v503a209 209 0 00208-221z" fill="#858585"/>
  <path d="M164 420a92 92 0 10153-68c-35 48-86-25-46-78 0 0-107 13-107 146z" fill="#bbb"/>
  <path d="M348 420c0-27-12-51-31-68-35 48-86-25-46-78l-15 4v234c51 0 92-41 92-92z" fill="#ccc"/>
</svg>