<svg fill="none" xmlns="http://www.w3.org/2000/svg" viewBox="0 0 15 15">
  <path d="M7.473 1.67c1.024 0 2.049.3 2.965.866a6.47 6.47 0 011.547 1.34l-1.53-.051a.33.33 0 00-.337.324.331.331 0 00.315.346l2.117.072a.319.319 0 00.355-.073.343.343 0 00.07-.365l-.07-2.18a.33.33 0 00-.332-.328.331.331 0 00-.319.35l.04 1.258a7.148 7.148 0 00-1.52-1.268A6.29 6.29 0 007.472 1c-1.824 0-3.506.774-4.734 2.18C1.65 4.426 1 6.102 1 7.665A.33.33 0 001.326 8a.33.33 0 00.325-.335c0-1.402.588-2.91 1.572-4.036 1.104-1.263 2.613-1.958 4.25-1.958v0zM13.674 7a.33.33 0 00-.325.335c0 1.402-.588 2.91-1.572 4.036-1.104 1.263-2.613 1.958-4.25 1.958a5.65 5.65 0 01-2.965-.865 6.476 6.476 0 01-1.547-1.34l1.53.051a.33.33 0 00.337-.324.331.331 0 00-.315-.346l-2.117-.072a.32.32 0 00-.355.073.343.343 0 00-.07.365l.07 2.18a.33.33 0 00.332.328.331.331 0 00.319-.343v-.007l-.04-1.258c.447.493.96.92 1.52 1.268A6.289 6.289 0 007.528 14c1.824 0 3.506-.774 4.734-2.18C13.35 10.574 14 8.898 14 7.335A.33.33 0 0013.674 7v0z" fill="#707070" stroke="#303030" stroke-width=".3"/>
</svg>
