<svg width="400" height="250" viewBox="0 0 400 250" fill="none" xmlns="http://www.w3.org/2000/svg">
<path d="M0 0.00183105H400V250H0V0.00183105Z" fill="#F0F0F0"/>
<path d="M225 0H175V101.56H0V148.434H175V249.994H225V148.434H400V101.56H225V0Z" fill="#D80027"/>
<path d="M307.644 168.474L400 216.576V168.474H307.644ZM243.478 168.474L400 249.994V226.942L287.74 168.474H243.478ZM358.308 249.994L243.478 190.183V249.994H358.308Z" fill="#0052B4"/>
<path d="M243.478 168.474L400 249.994V226.942L287.74 168.474H243.478Z" fill="#F0F0F0"/>
<path d="M243.478 168.474L400 249.994V226.942L287.74 168.474H243.478Z" fill="#D80027"/>
<path d="M70.5789 168.473L0 205.232V168.473H70.5789ZM156.522 178.839V249.993H19.9148L156.522 178.839Z" fill="#0052B4"/>
<path d="M112.26 168.474L0 226.942V249.994L156.522 168.474H112.26Z" fill="#D80027"/>
<path d="M92.3555 81.5199L0 33.4183V81.5199H92.3555ZM156.522 81.5199L0 0V23.0518L112.26 81.5199H156.522ZM41.6922 0L156.522 59.8113V0H41.6922Z" fill="#0052B4"/>
<path d="M156.522 81.5199L0 0V23.0518L112.26 81.5199H156.522Z" fill="#F0F0F0"/>
<path d="M156.522 81.5199L0 0V23.0518L112.26 81.5199H156.522Z" fill="#D80027"/>
<path d="M329.421 81.5212L400 44.7617V81.5212H329.421ZM243.478 71.1547V0.000610352H380.085L243.478 71.1547Z" fill="#0052B4"/>
<path d="M287.74 81.5199L400 23.0518V0L243.478 81.5199H287.74Z" fill="#D80027"/>
</svg>
