<?xml version="1.0" standalone="no"?>
<!DOCTYPE svg PUBLIC "-//W3C//DTD SVG 20010904//EN"
 "http://www.w3.org/TR/2001/REC-SVG-20010904/DTD/svg10.dtd">
<svg version="1.0" xmlns="http://www.w3.org/2000/svg"
 width="256.000000pt" height="256.000000pt" viewBox="0 0 256.000000 256.000000"
 preserveAspectRatio="xMidYMid meet">
<metadata>
Created by potrace 1.11, written by Peter Selinger 2001-2013
</metadata>
<g transform="translate(0.000000,256.000000) scale(0.100000,-0.100000)"
fill="#000000" stroke="none">
<path d="M496 2536 c-9 -14 -14 -38 -12 -55 2 -16 0 -34 -3 -40 -4 -6 -51 -12
-107 -15 -72 -2 -112 -9 -146 -24 -58 -26 -124 -92 -152 -152 -21 -45 -21 -50
-21 -1035 l0 -990 28 -57 c33 -68 91 -120 161 -147 49 -19 86 -20 1033 -20
973 -1 982 -1 1038 20 68 25 133 86 166 154 l24 50 0 990 0 990 -25 50 c-32
65 -84 117 -146 146 -38 17 -73 23 -154 27 l-105 4 1 46 c2 69 -50 107 -90 66
-17 -16 -19 -28 -18 -81 2 -36 10 -34 -143 -34 -25 0 -89 0 -143 0 l-98 1 -1
46 c-1 74 -49 108 -93 64 -14 -14 -20 -33 -20 -65 l0 -45 -40 -1 c-22 0 -60 0
-85 0 -25 0 -92 0 -150 0 l-105 1 0 45 c0 70 -47 105 -94 70 -14 -11 -18 -26
-17 -65 l1 -50 -35 -1 c-19 0 -55 0 -80 0 -25 0 -96 0 -159 0 l-114 1 0 38 c0
56 -1 59 -18 76 -23 24 -59 20 -78 -8z"/>
</g>
</svg>
